<?xml version="1.0" encoding="utf-8"?>
<!-- Generator: Adobe Illustrator 16.0.0, SVG Export Plug-In . SVG Version: 6.00 Build 0)  -->
<!DOCTYPE svg PUBLIC "-//W3C//DTD SVG 1.1//EN" "http://www.w3.org/Graphics/SVG/1.1/DTD/svg11.dtd">
<svg version="1.1" id="Layer_1" xmlns="http://www.w3.org/2000/svg" xmlns:xlink="http://www.w3.org/1999/xlink" x="0px" y="0px"
	 width="223px" height="115px" viewBox="0 0 223 115" enable-background="new 0 0 223 115" xml:space="preserve">
<g>
	<g>
		<path fill-rule="evenodd" clip-rule="evenodd" fill="#1E9C48" d="M56.122,30.345C35.471,37.361,26.818,42.85,26.818,42.85
			s12.655-4.928,28.73-9.78L56.122,30.345z"/>
		<path fill-rule="evenodd" clip-rule="evenodd" fill="#1E9C48" d="M163.126,17.961c-12.496-6.599-46.358-3.729-73.661,2.852
			c-8.495,2.047-16.012,4.105-22.621,6.099l0.752,2.745c5.808-1.529,11.752-2.914,17.48-3.958
			c26.794-4.884,36.649-5.785,51.774-4.144c17.6,1.911,23.129,9.339,13.376,18.993c-6.853,6.787-17.326,12.313-17.326,12.313
			s18.281-8.889,23.467-12.416C163.703,35.458,176.565,25.057,163.126,17.961z"/>
	</g>
	<g>
		<path d="M91.759,103.336L81.71,77.248h6.177l4.241,11.844c1.199,3.29,2.212,6.348,3.042,9.521h0.092
			c0.83-3.097,1.936-6.27,3.181-9.444l4.518-11.922H109l-10.741,26.088H91.759z"/>
	</g>
	<polyline fill-rule="evenodd" clip-rule="evenodd" fill="none" stroke="#000000" stroke-width="3" stroke-miterlimit="10" points="
		108.152,74.474 115.062,52.782 117.188,59.974 124.217,39.051 132.552,64.225 135.659,57.358 137.293,61.282 215.646,61.282 	"/>
	<polyline fill-rule="evenodd" clip-rule="evenodd" fill="none" stroke="#000000" stroke-width="3" stroke-miterlimit="10" points="
		12.909,64.724 39.476,64.766 41.678,57.204 46.092,71.262 61.621,22.876 82.38,74.474 	"/>
	<path fill-rule="evenodd" clip-rule="evenodd" fill="none" stroke="#000000" stroke-width="4" stroke-miterlimit="10" d="
		M104.801,71.545"/>
</g>
</svg>
