<?xml version="1.0" encoding="utf-8"?>
<!-- Generator: Adobe Illustrator 16.0.0, SVG Export Plug-In . SVG Version: 6.00 Build 0)  -->
<!DOCTYPE svg PUBLIC "-//W3C//DTD SVG 1.1//EN" "http://www.w3.org/Graphics/SVG/1.1/DTD/svg11.dtd">
<svg version="1.1" id="Layer_1" xmlns="http://www.w3.org/2000/svg" xmlns:xlink="http://www.w3.org/1999/xlink" x="0px" y="0px"
	 width="1200px" height="1200px" viewBox="0 0 382 184" enable-background="new 0 0 382 184" xml:space="preserve">
<g>
	<g>
		<path fill-rule="evenodd" clip-rule="evenodd" fill="#1E9C48" d="M63.204,50.629c-19.735,6.705-28.003,11.95-28.003,11.95
			s12.094-4.709,27.455-9.346L63.204,50.629z"/>
		<path fill-rule="evenodd" clip-rule="evenodd" fill="#1E9C48" d="M165.458,38.795c-11.941-6.306-44.3-3.563-70.391,2.725
			c-8.118,1.956-15.301,3.923-21.617,5.828l0.719,2.624c5.55-1.461,11.23-2.785,16.704-3.782
			c25.604-4.667,35.022-5.528,49.476-3.959c16.819,1.826,22.103,8.924,12.783,18.149c-6.548,6.486-16.557,11.767-16.557,11.767
			S154.044,63.651,159,60.281C166.009,55.515,178.3,45.576,165.458,38.795z"/>
	</g>
	<g>
		<path d="M97.259,120.38l-9.603-24.93h5.903l4.053,11.318c1.146,3.144,2.114,6.066,2.907,9.099h0.088
			c0.793-2.959,1.85-5.992,3.04-9.024l4.317-11.393h5.771l-10.264,24.93H97.259z"/>
		<path d="M121.53,97.337c0,1.368-1.189,2.441-3.083,2.441c-1.806,0-2.996-1.073-2.996-2.441c0-1.406,1.233-2.479,3.04-2.479
			C120.34,94.858,121.486,95.931,121.53,97.337z M115.759,120.38v-18.013h5.463v18.013H115.759z"/>
		<path d="M133.247,97.226v5.142h5.154v3.403h-5.154v7.952c0,2.182,0.705,3.329,2.775,3.329c0.925,0,1.63-0.111,2.115-0.222
			l0.088,3.477c-0.793,0.259-2.203,0.444-3.92,0.444c-1.982,0-3.657-0.555-4.67-1.479c-1.145-1.036-1.674-2.663-1.674-5.03v-8.47
			h-3.083v-3.403h3.083v-4.069L133.247,97.226z"/>
		<path d="M154.566,120.38l-0.352-1.997h-0.132c-1.322,1.405-3.568,2.404-6.344,2.404c-4.317,0-6.74-2.626-6.74-5.363
			c0-4.55,4.802-6.843,12.731-6.806v-0.296c0-1.184-0.573-3.144-4.361-3.144c-2.115,0-4.317,0.555-5.771,1.332l-1.057-2.959
			c1.586-0.814,4.361-1.591,7.753-1.591c6.872,0,8.854,3.662,8.854,7.583v6.51c0,1.627,0.088,3.218,0.309,4.328H154.566z
			 M153.862,111.577c-3.833-0.074-7.489,0.628-7.489,3.366c0,1.775,1.365,2.589,3.083,2.589c2.159,0,3.745-1.184,4.229-2.478
			c0.132-0.333,0.176-0.703,0.176-0.999V111.577z"/>
		<path d="M164.872,94.119h5.463v26.261h-5.463V94.119z"/>
		<path fill="#1E9C48" d="M210.596,110.208c-0.176-3.218-0.396-7.102-0.353-10.467h-0.132c-0.97,3.033-2.203,6.398-3.524,9.542
			l-4.317,10.8h-4.185l-3.965-10.652c-1.146-3.181-2.203-6.584-2.996-9.69h-0.088c-0.132,3.255-0.309,7.212-0.529,10.615
			l-0.661,10.023h-5.066l1.982-24.93h7.136l3.876,10.024c1.058,2.922,1.982,5.881,2.731,8.655h0.132
			c0.792-2.7,1.806-5.77,2.952-8.692l4.097-9.987h7.048l1.719,24.93h-5.287L210.596,110.208z"/>
		<path fill="#1E9C48" d="M225.79,112.649c0.132,3.255,3.172,4.661,6.607,4.661c2.511,0,4.317-0.296,5.947-0.814l0.793,3.144
			c-1.851,0.629-4.405,1.11-7.489,1.11c-6.96,0-11.057-3.588-11.057-9.099c0-4.993,3.612-9.691,10.484-9.691
			c6.96,0,9.251,4.809,9.251,8.766c0,0.851-0.088,1.517-0.177,1.923H225.79z M235.217,109.469c0.044-1.665-0.837-4.401-4.449-4.401
			c-3.348,0-4.758,2.552-4.978,4.401H235.217z"/>
		<path fill="#1E9C48" d="M264.465,94.119v21.193c0,1.85,0.089,3.847,0.177,5.067h-4.846l-0.221-2.848h-0.088
			c-1.277,1.998-3.877,3.255-7.004,3.255c-5.11,0-9.163-3.662-9.163-9.209c-0.044-6.029,4.449-9.617,9.604-9.617
			c2.951,0,5.065,1.036,6.035,2.367h0.088V94.119H264.465z M259.047,109.875c0-0.37-0.044-0.814-0.132-1.184
			c-0.485-1.775-2.203-3.218-4.67-3.218c-3.48,0-5.419,2.589-5.419,5.955c0,3.292,1.938,5.696,5.375,5.696
			c2.202,0,4.141-1.258,4.669-3.218c0.133-0.407,0.177-0.851,0.177-1.332V109.875z"/>
		<path fill="#1E9C48" d="M276.049,97.337c0,1.368-1.189,2.441-3.084,2.441c-1.807,0-2.996-1.073-2.996-2.441
			c0-1.406,1.234-2.479,3.04-2.479C274.859,94.858,276.004,95.931,276.049,97.337z M270.277,120.38v-18.013h5.463v18.013H270.277z"
			/>
		<path fill="#1E9C48" d="M295.915,117.902h-0.088c-1.278,1.738-3.524,2.885-6.652,2.885c-4.802,0-8.986-3.514-8.986-9.136
			c0-6.583,5.021-9.691,9.604-9.691c2.995,0,5.109,1.073,6.255,2.774l0.088,0.037l0.133-2.404h5.242
			c-0.088,1.627-0.177,3.329-0.177,5.215v20.121h-5.418V117.902z M295.915,109.802c0-0.37-0.044-0.777-0.132-1.11
			c-0.485-1.702-2.203-3.144-4.626-3.144c-3.48,0-5.462,2.479-5.462,5.881c0,3.292,1.894,5.771,5.33,5.771
			c2.202,0,4.009-1.184,4.625-2.996c0.177-0.444,0.265-0.962,0.265-1.406V109.802z"/>
		<path fill="#1E9C48" d="M326.353,114.979c0,2.146,0.088,3.921,0.176,5.4h-4.757l-0.265-2.737h-0.088
			c-0.926,1.295-3.04,3.144-6.872,3.144c-3.921,0-7.489-1.96-7.489-7.841v-10.578h5.418v9.802c0,2.996,1.146,4.919,4.009,4.919
			c2.159,0,3.568-1.294,4.142-2.441c0.176-0.407,0.308-0.888,0.308-1.406v-10.874h5.419V114.979z"/>
		<path fill="#1E9C48" d="M337.979,97.337c0,1.368-1.189,2.441-3.084,2.441c-1.807,0-2.996-1.073-2.996-2.441
			c0-1.406,1.234-2.479,3.04-2.479C336.79,94.858,337.935,95.931,337.979,97.337z M332.208,120.38v-18.013h5.463v18.013H332.208z"/>
		<path fill="#1E9C48" d="M343.484,108.359c0-2.367-0.088-4.291-0.176-5.992h4.758l0.264,2.774h0.088
			c1.586-2.034,4.098-3.181,7.357-3.181c4.934,0,9.03,3.551,9.03,9.173c0,6.51-4.89,9.654-9.779,9.654
			c-2.688,0-4.934-0.961-6.035-2.404h-0.088v9.32h-5.419V108.359z M348.903,112.834c0,0.444,0.044,0.851,0.176,1.257
			c0.528,1.85,2.467,3.181,4.758,3.181c3.436,0,5.462-2.404,5.462-5.955c0-3.181-1.85-5.77-5.33-5.77
			c-2.246,0-4.316,1.369-4.846,3.366c-0.132,0.37-0.22,0.776-0.22,1.146V112.834z"/>
	</g>
	<g>
		<path fill="#020202" d="M90.595,145.172h-2.421l0.401-1.948c0.234-1.128,0.601-1.927,1.102-2.395
			c0.501-0.468,1.152-0.71,1.954-0.727l-0.234,1.131c-0.4,0.097-0.709,0.261-0.926,0.494c-0.217,0.232-0.381,0.595-0.493,1.089
			h1.102L90.595,145.172z M94.619,145.172h-2.413l0.393-1.948c0.233-1.128,0.602-1.927,1.106-2.395
			c0.503-0.468,1.156-0.71,1.958-0.727l-0.234,1.131c-0.401,0.097-0.709,0.261-0.927,0.494c-0.217,0.232-0.384,0.595-0.5,1.089
			h1.102L94.619,145.172z"/>
		<path fill="#020202" d="M95.37,152.716l2.563-12.469h2.513l-2.129,10.385h6.227l-0.426,2.084H95.37z"/>
		<path fill="#020202" d="M114.377,148.957h-6.01c-0.006,0.096-0.008,0.17-0.008,0.221c0,0.602,0.168,1.086,0.505,1.455
			c0.336,0.369,0.747,0.553,1.231,0.553c0.796,0,1.417-0.419,1.862-1.259l2.145,0.366c-0.417,0.879-0.975,1.539-1.674,1.978
			c-0.698,0.44-1.481,0.659-2.35,0.659c-1.191,0-2.159-0.384-2.905-1.152c-0.746-0.768-1.119-1.785-1.119-3.049
			c0-1.236,0.337-2.336,1.01-3.3c0.918-1.304,2.229-1.956,3.932-1.956c1.085,0,1.947,0.342,2.587,1.025s0.96,1.64,0.96,2.871
			C114.544,147.956,114.488,148.486,114.377,148.957z M112.357,147.468c0.005-0.107,0.008-0.19,0.008-0.247
			c0-0.669-0.147-1.171-0.442-1.505s-0.69-0.502-1.185-0.502c-0.496,0-0.939,0.19-1.332,0.57s-0.658,0.941-0.797,1.684H112.357z"/>
		<path fill="#020202" d="M118.651,146.244l-2.337-0.204c0.267-0.805,0.733-1.435,1.398-1.889c0.665-0.454,1.545-0.68,2.642-0.68
			c1.141,0,1.983,0.234,2.529,0.702c0.545,0.468,0.818,1.039,0.818,1.714c0,0.272-0.024,0.562-0.071,0.868
			c-0.047,0.306-0.213,1.111-0.497,2.416c-0.233,1.078-0.351,1.832-0.351,2.263c0,0.386,0.067,0.813,0.201,1.284h-2.329
			c-0.095-0.329-0.153-0.669-0.175-1.021c-0.351,0.397-0.754,0.702-1.21,0.914c-0.456,0.213-0.915,0.319-1.377,0.319
			c-0.735,0-1.341-0.245-1.82-0.735c-0.479-0.491-0.718-1.122-0.718-1.893c0-0.862,0.263-1.551,0.789-2.067s1.465-0.828,2.817-0.936
			c1.141-0.097,1.903-0.213,2.287-0.349c0.1-0.34,0.15-0.612,0.15-0.816c0-0.261-0.103-0.479-0.309-0.655s-0.512-0.264-0.918-0.264
			c-0.429,0-0.767,0.089-1.014,0.268C118.909,145.661,118.74,145.915,118.651,146.244z M120.93,148.506
			c-0.145,0.04-0.336,0.077-0.576,0.111c-1.202,0.147-1.987,0.363-2.354,0.646c-0.262,0.204-0.393,0.479-0.393,0.825
			c0,0.284,0.101,0.523,0.301,0.719c0.2,0.196,0.464,0.293,0.793,0.293c0.362,0,0.703-0.089,1.022-0.268
			c0.32-0.179,0.559-0.409,0.718-0.689c0.159-0.281,0.299-0.719,0.422-1.314L120.93,148.506z"/>
		<path fill="#020202" d="M132.984,152.716h-2.271l0.201-0.978c-0.434,0.425-0.861,0.73-1.282,0.914
			c-0.42,0.185-0.895,0.276-1.423,0.276c-0.918,0-1.663-0.319-2.233-0.957c-0.571-0.638-0.855-1.581-0.855-2.828
			c0-1.446,0.4-2.753,1.202-3.921c0.801-1.168,1.861-1.752,3.18-1.752c1.191,0,2.084,0.482,2.68,1.446l0.96-4.669h2.396
			L132.984,152.716z M127.45,149.042c0,0.646,0.16,1.151,0.48,1.514c0.32,0.363,0.714,0.544,1.181,0.544
			c0.434,0,0.839-0.151,1.214-0.455c0.376-0.303,0.676-0.767,0.902-1.391c0.225-0.624,0.338-1.222,0.338-1.794
			c0-0.652-0.172-1.18-0.518-1.582c-0.345-0.403-0.743-0.604-1.194-0.604c-0.701,0-1.277,0.397-1.728,1.191
			S127.45,148.118,127.45,149.042z"/>
		<path fill="#020202" d="M137.108,143.683h2.396l-1.853,9.033h-2.396L137.108,143.683z M137.809,140.247h2.396l-0.451,2.211h-2.396
			L137.809,140.247z"/>
		<path fill="#020202" d="M141.908,143.683h2.271l-0.233,1.174c0.567-0.499,1.098-0.854,1.59-1.067
			c0.493-0.212,1.011-0.319,1.557-0.319c0.729,0,1.304,0.212,1.724,0.638c0.42,0.425,0.63,0.99,0.63,1.693
			c0,0.317-0.092,0.918-0.275,1.803l-1.043,5.112h-2.396l1.052-5.129c0.156-0.766,0.234-1.222,0.234-1.37
			c0-0.312-0.091-0.557-0.271-0.735c-0.181-0.179-0.433-0.268-0.755-0.268c-0.351,0-0.74,0.15-1.169,0.451
			c-0.428,0.301-0.765,0.698-1.01,1.191c-0.178,0.352-0.378,1.069-0.601,2.152l-0.76,3.708h-2.396L141.908,143.683z"/>
		<path fill="#020202" d="M150.355,153.193l2.529,0.374c0,0.261,0.042,0.458,0.125,0.591c0.083,0.133,0.218,0.247,0.405,0.34
			c0.186,0.094,0.441,0.141,0.764,0.141c0.506,0,0.913-0.102,1.219-0.306c0.228-0.159,0.415-0.414,0.559-0.766
			c0.089-0.221,0.203-0.703,0.342-1.446l0.083-0.425c-0.829,0.703-1.686,1.055-2.571,1.055c-0.868,0-1.581-0.312-2.137-0.936
			c-0.556-0.624-0.834-1.537-0.834-2.739c0-1.06,0.189-2.033,0.567-2.917c0.378-0.884,0.91-1.553,1.595-2.007
			c0.684-0.454,1.382-0.68,2.095-0.68c0.59,0,1.13,0.159,1.62,0.476c0.49,0.318,0.871,0.763,1.144,1.335l0.334-1.599h2.245
			l-1.536,7.528c-0.25,1.208-0.462,2.069-0.634,2.585c-0.173,0.516-0.371,0.927-0.593,1.233c-0.223,0.306-0.504,0.563-0.843,0.77
			c-0.339,0.207-0.74,0.355-1.202,0.446s-0.962,0.136-1.502,0.136c-1.252,0-2.198-0.218-2.838-0.655
			c-0.64-0.437-0.96-1.163-0.96-2.178C150.331,153.442,150.339,153.323,150.355,153.193z M153.177,148.829
			c0,0.686,0.151,1.209,0.455,1.569c0.303,0.36,0.683,0.54,1.14,0.54c0.417,0,0.822-0.162,1.214-0.485
			c0.393-0.323,0.693-0.782,0.901-1.378c0.209-0.595,0.313-1.171,0.313-1.727c0-0.641-0.169-1.157-0.509-1.548
			c-0.34-0.391-0.732-0.587-1.177-0.587c-0.429,0-0.822,0.173-1.181,0.519c-0.359,0.346-0.655,0.879-0.889,1.599
			C153.266,147.888,153.177,148.387,153.177,148.829z"/>
		<path fill="#020202" d="M167.56,143.683h2.396l-1.853,9.033h-2.396L167.56,143.683z M168.261,140.247h2.396l-0.451,2.211h-2.396
			L168.261,140.247z"/>
		<path fill="#020202" d="M172.36,143.683h2.271l-0.233,1.174c0.567-0.499,1.098-0.854,1.59-1.067
			c0.493-0.212,1.011-0.319,1.557-0.319c0.729,0,1.304,0.212,1.724,0.638c0.42,0.425,0.63,0.99,0.63,1.693
			c0,0.317-0.092,0.918-0.275,1.803l-1.043,5.112h-2.396l1.052-5.129c0.156-0.766,0.234-1.222,0.234-1.37
			c0-0.312-0.091-0.557-0.271-0.735c-0.181-0.179-0.433-0.268-0.755-0.268c-0.351,0-0.74,0.15-1.169,0.451
			c-0.428,0.301-0.765,0.698-1.01,1.191c-0.178,0.352-0.378,1.069-0.601,2.152l-0.76,3.708h-2.396L172.36,143.683z"/>
		<path fill="#020202" d="M194.156,147.145h-4.733l-1.144,5.571h-2.521l2.563-12.469h2.512l-0.985,4.814h4.733l0.993-4.814h2.513
			l-2.554,12.469h-2.521L194.156,147.145z"/>
		<path fill="#020202" d="M206.693,148.957h-6.01c-0.006,0.096-0.008,0.17-0.008,0.221c0,0.602,0.168,1.086,0.504,1.455
			c0.337,0.369,0.747,0.553,1.231,0.553c0.796,0,1.416-0.419,1.861-1.259l2.146,0.366c-0.417,0.879-0.976,1.539-1.674,1.978
			c-0.698,0.44-1.481,0.659-2.35,0.659c-1.191,0-2.159-0.384-2.905-1.152c-0.746-0.768-1.119-1.785-1.119-3.049
			c0-1.236,0.337-2.336,1.01-3.3c0.918-1.304,2.229-1.956,3.931-1.956c1.085,0,1.948,0.342,2.588,1.025s0.96,1.64,0.96,2.871
			C206.86,147.956,206.805,148.486,206.693,148.957z M204.674,147.468c0.005-0.107,0.008-0.19,0.008-0.247
			c0-0.669-0.147-1.171-0.442-1.505s-0.69-0.502-1.186-0.502s-0.938,0.19-1.331,0.57s-0.658,0.941-0.797,1.684H204.674z"/>
		<path fill="#020202" d="M210.968,146.244l-2.338-0.204c0.268-0.805,0.733-1.435,1.398-1.889c0.665-0.454,1.546-0.68,2.642-0.68
			c1.141,0,1.984,0.234,2.529,0.702c0.546,0.468,0.818,1.039,0.818,1.714c0,0.272-0.023,0.562-0.071,0.868
			c-0.047,0.306-0.213,1.111-0.496,2.416c-0.234,1.078-0.351,1.832-0.351,2.263c0,0.386,0.066,0.813,0.2,1.284h-2.329
			c-0.095-0.329-0.153-0.669-0.175-1.021c-0.351,0.397-0.755,0.702-1.211,0.914c-0.456,0.213-0.915,0.319-1.377,0.319
			c-0.734,0-1.342-0.245-1.82-0.735c-0.479-0.491-0.718-1.122-0.718-1.893c0-0.862,0.264-1.551,0.789-2.067
			c0.526-0.516,1.465-0.828,2.817-0.936c1.141-0.097,1.903-0.213,2.287-0.349c0.101-0.34,0.15-0.612,0.15-0.816
			c0-0.261-0.104-0.479-0.309-0.655c-0.206-0.176-0.513-0.264-0.919-0.264c-0.429,0-0.767,0.089-1.014,0.268
			C211.225,145.661,211.057,145.915,210.968,146.244z M213.246,148.506c-0.145,0.04-0.337,0.077-0.576,0.111
			c-1.201,0.147-1.986,0.363-2.354,0.646c-0.262,0.204-0.393,0.479-0.393,0.825c0,0.284,0.101,0.523,0.301,0.719
			c0.2,0.196,0.465,0.293,0.793,0.293c0.361,0,0.702-0.089,1.022-0.268c0.32-0.179,0.56-0.409,0.718-0.689
			c0.159-0.281,0.299-0.719,0.422-1.314L213.246,148.506z"/>
		<path fill="#020202" d="M217.096,152.716l2.563-12.469h2.388l-2.555,12.469H217.096z"/>
		<path fill="#020202" d="M222.479,145.495l0.367-1.812h1.169l0.292-1.446l2.746-1.684l-0.643,3.13h1.461l-0.367,1.812h-1.469
			l-0.776,3.785c-0.14,0.687-0.209,1.078-0.209,1.174c0,0.188,0.059,0.333,0.175,0.438c0.117,0.105,0.329,0.158,0.635,0.158
			c0.105,0,0.37-0.02,0.793-0.06l-0.376,1.812c-0.411,0.085-0.834,0.127-1.269,0.127c-0.846,0-1.461-0.166-1.845-0.498
			c-0.384-0.332-0.576-0.792-0.576-1.382c0-0.278,0.104-0.919,0.31-1.922l0.742-3.632H222.479z"/>
		<path fill="#020202" d="M230.018,152.716h-2.396l2.563-12.469h2.396l-0.918,4.44c0.54-0.431,1.044-0.741,1.511-0.932
			c0.468-0.19,0.969-0.285,1.503-0.285c0.718,0,1.285,0.21,1.702,0.629c0.418,0.419,0.627,0.97,0.627,1.65
			c0,0.363-0.078,0.924-0.234,1.684l-1.085,5.282h-2.396l1.11-5.384c0.116-0.584,0.175-0.958,0.175-1.123
			c0-0.3-0.092-0.542-0.275-0.723c-0.184-0.181-0.434-0.272-0.751-0.272c-0.4,0-0.785,0.142-1.152,0.425
			c-0.479,0.374-0.843,0.833-1.093,1.378c-0.14,0.301-0.323,1.006-0.552,2.118L230.018,152.716z"/>
		<path fill="#020202" d="M244.058,149.314l2.329,0.383c-0.384,1.055-0.952,1.857-1.703,2.407c-0.751,0.55-1.622,0.825-2.612,0.825
			c-1.13,0-2.025-0.343-2.688-1.029c-0.663-0.686-0.994-1.63-0.994-2.833c0-0.981,0.2-1.908,0.602-2.781
			c0.4-0.873,1.004-1.561,1.812-2.063c0.807-0.501,1.691-0.752,2.654-0.752c1.046,0,1.881,0.278,2.504,0.833
			s0.974,1.287,1.052,2.194l-2.279,0.247c-0.056-0.504-0.207-0.876-0.454-1.114c-0.248-0.238-0.572-0.357-0.973-0.357
			c-0.462,0-0.894,0.176-1.294,0.527s-0.708,0.877-0.923,1.578c-0.214,0.701-0.321,1.357-0.321,1.969
			c0,0.533,0.128,0.944,0.385,1.233c0.256,0.289,0.575,0.434,0.96,0.434c0.384,0,0.754-0.142,1.109-0.425
			C243.579,150.307,243.857,149.881,244.058,149.314z"/>
		<path fill="#020202" d="M250.953,146.244l-2.338-0.204c0.268-0.805,0.733-1.435,1.398-1.889c0.665-0.454,1.546-0.68,2.642-0.68
			c1.141,0,1.984,0.234,2.529,0.702c0.546,0.468,0.818,1.039,0.818,1.714c0,0.272-0.023,0.562-0.071,0.868
			c-0.047,0.306-0.213,1.111-0.496,2.416c-0.234,1.078-0.351,1.832-0.351,2.263c0,0.386,0.066,0.813,0.2,1.284h-2.329
			c-0.095-0.329-0.153-0.669-0.175-1.021c-0.351,0.397-0.755,0.702-1.211,0.914c-0.456,0.213-0.915,0.319-1.377,0.319
			c-0.734,0-1.342-0.245-1.82-0.735c-0.479-0.491-0.718-1.122-0.718-1.893c0-0.862,0.264-1.551,0.789-2.067
			c0.526-0.516,1.465-0.828,2.817-0.936c1.141-0.097,1.903-0.213,2.287-0.349c0.101-0.34,0.15-0.612,0.15-0.816
			c0-0.261-0.104-0.479-0.309-0.655c-0.206-0.176-0.513-0.264-0.919-0.264c-0.429,0-0.767,0.089-1.014,0.268
			C251.21,145.661,251.042,145.915,250.953,146.244z M253.231,148.506c-0.145,0.04-0.337,0.077-0.576,0.111
			c-1.201,0.147-1.986,0.363-2.354,0.646c-0.262,0.204-0.393,0.479-0.393,0.825c0,0.284,0.101,0.523,0.301,0.719
			c0.2,0.196,0.465,0.293,0.793,0.293c0.361,0,0.702-0.089,1.022-0.268c0.32-0.179,0.56-0.409,0.718-0.689
			c0.159-0.281,0.299-0.719,0.422-1.314L253.231,148.506z"/>
		<path fill="#020202" d="M258.816,143.683h2.236l-0.358,1.752c0.835-1.31,1.739-1.965,2.713-1.965c0.345,0,0.715,0.088,1.11,0.264
			l-0.919,1.999c-0.217-0.079-0.447-0.119-0.692-0.119c-0.412,0-0.83,0.159-1.256,0.476c-0.426,0.318-0.759,0.742-0.998,1.271
			c-0.239,0.53-0.476,1.371-0.709,2.522l-0.585,2.833h-2.396L258.816,143.683z"/>
		<path fill="#020202" d="M272.397,148.957h-6.01c-0.006,0.096-0.009,0.17-0.009,0.221c0,0.602,0.169,1.086,0.505,1.455
			c0.337,0.369,0.747,0.553,1.231,0.553c0.796,0,1.416-0.419,1.861-1.259l2.146,0.366c-0.417,0.879-0.976,1.539-1.674,1.978
			c-0.698,0.44-1.481,0.659-2.35,0.659c-1.19,0-2.159-0.384-2.904-1.152c-0.746-0.768-1.119-1.785-1.119-3.049
			c0-1.236,0.337-2.336,1.01-3.3c0.919-1.304,2.229-1.956,3.932-1.956c1.085,0,1.948,0.342,2.588,1.025s0.96,1.64,0.96,2.871
			C272.564,147.956,272.509,148.486,272.397,148.957z M270.378,147.468c0.005-0.107,0.008-0.19,0.008-0.247
			c0-0.669-0.147-1.171-0.442-1.505s-0.69-0.502-1.186-0.502s-0.938,0.19-1.331,0.57s-0.658,0.941-0.797,1.684H270.378z"/>
		<path fill="#020202" d="M278.459,148.676l2.396-0.128c0.034,0.777,0.164,1.302,0.393,1.574c0.367,0.442,1.046,0.664,2.037,0.664
			c0.823,0,1.419-0.15,1.786-0.451c0.367-0.3,0.551-0.663,0.551-1.088c0-0.369-0.15-0.681-0.451-0.936
			c-0.211-0.188-0.791-0.491-1.74-0.91c-0.948-0.42-1.642-0.77-2.078-1.051c-0.437-0.28-0.78-0.645-1.031-1.093
			c-0.25-0.448-0.375-0.973-0.375-1.574c0-1.049,0.372-1.919,1.118-2.611c0.746-0.691,1.825-1.038,3.238-1.038
			c1.437,0,2.548,0.343,3.335,1.029c0.788,0.686,1.221,1.599,1.298,2.739l-2.412,0.111c-0.062-0.596-0.272-1.052-0.634-1.37
			c-0.362-0.317-0.896-0.476-1.604-0.476c-0.695,0-1.192,0.125-1.489,0.374c-0.298,0.25-0.447,0.564-0.447,0.944
			c0,0.357,0.137,0.652,0.409,0.884c0.272,0.238,0.877,0.564,1.812,0.979c1.408,0.618,2.304,1.12,2.688,1.505
			c0.573,0.567,0.86,1.296,0.86,2.186c0,1.1-0.428,2.04-1.281,2.819c-0.854,0.78-2.044,1.169-3.568,1.169
			c-1.052,0-1.964-0.18-2.734-0.54c-0.771-0.36-1.314-0.86-1.632-1.501S278.437,149.51,278.459,148.676z"/>
		<path fill="#020202" d="M289.828,148.965c0-1.673,0.463-3.007,1.39-4.002s2.144-1.493,3.652-1.493
			c1.308,0,2.328,0.367,3.063,1.102c0.734,0.734,1.102,1.722,1.102,2.964c0,1.463-0.459,2.728-1.377,3.794
			c-0.919,1.066-2.148,1.599-3.69,1.599c-0.834,0-1.574-0.17-2.22-0.51c-0.646-0.34-1.127-0.822-1.444-1.446
			C289.986,150.349,289.828,149.68,289.828,148.965z M296.656,147.222c0-0.579-0.166-1.042-0.497-1.391s-0.758-0.523-1.281-0.523
			c-0.518,0-0.977,0.163-1.377,0.489s-0.713,0.8-0.936,1.42c-0.222,0.621-0.333,1.192-0.333,1.714c0,0.646,0.172,1.16,0.518,1.54
			c0.345,0.38,0.778,0.57,1.302,0.57c0.656,0,1.207-0.286,1.652-0.859C296.339,149.371,296.656,148.384,296.656,147.222z"/>
		<path fill="#020202" d="M299.921,152.716l2.563-12.469h2.388l-2.555,12.469H299.921z"/>
		<path fill="#020202" d="M306.54,143.683h2.396l-1.094,5.35c-0.134,0.641-0.2,1.041-0.2,1.199c0,0.261,0.094,0.485,0.283,0.672
			c0.189,0.187,0.432,0.28,0.727,0.28c0.211,0,0.42-0.041,0.626-0.123s0.417-0.207,0.635-0.375c0.217-0.167,0.411-0.358,0.584-0.574
			c0.172-0.216,0.334-0.499,0.484-0.851c0.105-0.261,0.22-0.686,0.342-1.276l0.885-4.304h2.396l-1.853,9.033h-2.237l0.25-1.225
			c-0.979,0.958-2.045,1.437-3.196,1.437c-0.729,0-1.303-0.212-1.72-0.638s-0.626-0.995-0.626-1.709
			c0-0.312,0.095-0.933,0.283-1.863L306.54,143.683z"/>
		<path fill="#020202" d="M315.764,145.495l0.367-1.812h1.169l0.292-1.446l2.746-1.684l-0.643,3.13h1.461l-0.367,1.812h-1.469
			l-0.776,3.785c-0.14,0.687-0.209,1.078-0.209,1.174c0,0.188,0.059,0.333,0.175,0.438c0.117,0.105,0.329,0.158,0.635,0.158
			c0.105,0,0.37-0.02,0.793-0.06l-0.376,1.812c-0.411,0.085-0.834,0.127-1.269,0.127c-0.846,0-1.461-0.166-1.845-0.498
			c-0.384-0.332-0.576-0.792-0.576-1.382c0-0.278,0.104-0.919,0.31-1.922l0.742-3.632H315.764z"/>
		<path fill="#020202" d="M322.726,143.683h2.396l-1.854,9.033h-2.396L322.726,143.683z M323.427,140.247h2.396l-0.451,2.211h-2.396
			L323.427,140.247z"/>
		<path fill="#020202" d="M325.99,148.965c0-1.673,0.463-3.007,1.39-4.002s2.144-1.493,3.652-1.493c1.308,0,2.328,0.367,3.063,1.102
			c0.734,0.734,1.102,1.722,1.102,2.964c0,1.463-0.459,2.728-1.377,3.794c-0.919,1.066-2.148,1.599-3.69,1.599
			c-0.834,0-1.574-0.17-2.22-0.51c-0.646-0.34-1.127-0.822-1.444-1.446C326.148,150.349,325.99,149.68,325.99,148.965z
			 M332.818,147.222c0-0.579-0.166-1.042-0.497-1.391s-0.758-0.523-1.281-0.523c-0.518,0-0.977,0.163-1.377,0.489
			s-0.713,0.8-0.936,1.42c-0.222,0.621-0.333,1.192-0.333,1.714c0,0.646,0.172,1.16,0.518,1.54c0.345,0.38,0.778,0.57,1.302,0.57
			c0.656,0,1.207-0.286,1.652-0.859C332.501,149.371,332.818,148.384,332.818,147.222z"/>
		<path fill="#020202" d="M337.986,143.683h2.271l-0.234,1.174c0.567-0.499,1.098-0.854,1.591-1.067
			c0.492-0.212,1.011-0.319,1.557-0.319c0.729,0,1.303,0.212,1.724,0.638c0.42,0.425,0.63,0.99,0.63,1.693
			c0,0.317-0.092,0.918-0.275,1.803l-1.043,5.112h-2.396l1.052-5.129c0.156-0.766,0.234-1.222,0.234-1.37
			c0-0.312-0.091-0.557-0.271-0.735c-0.181-0.179-0.433-0.268-0.756-0.268c-0.351,0-0.74,0.15-1.168,0.451
			c-0.429,0.301-0.766,0.698-1.011,1.191c-0.178,0.352-0.378,1.069-0.601,2.152l-0.76,3.708h-2.396L337.986,143.683z"/>
		<path fill="#020202" d="M346.25,150.19l2.32-0.374c0.206,0.499,0.462,0.852,0.768,1.059c0.307,0.207,0.724,0.31,1.252,0.31
			c0.546,0,0.982-0.125,1.311-0.374c0.229-0.17,0.343-0.377,0.343-0.621c0-0.164-0.059-0.312-0.176-0.442
			c-0.122-0.125-0.453-0.278-0.993-0.459c-1.447-0.488-2.343-0.873-2.688-1.157c-0.54-0.442-0.81-1.021-0.81-1.735
			s0.261-1.33,0.784-1.846c0.729-0.72,1.812-1.08,3.247-1.08c1.141,0,2.004,0.212,2.588,0.638s0.954,1.001,1.11,1.727l-2.212,0.391
			c-0.117-0.329-0.307-0.576-0.568-0.74c-0.355-0.221-0.784-0.332-1.285-0.332s-0.861,0.085-1.081,0.255
			c-0.22,0.17-0.329,0.366-0.329,0.586c0,0.227,0.11,0.414,0.333,0.562c0.14,0.091,0.588,0.25,1.345,0.477
			c1.168,0.346,1.95,0.686,2.345,1.021c0.557,0.471,0.835,1.038,0.835,1.701c0,0.856-0.354,1.599-1.06,2.229
			c-0.707,0.629-1.703,0.944-2.988,0.944c-1.28,0-2.27-0.239-2.968-0.718C346.975,151.731,346.5,151.058,346.25,150.19z"/>
		<path fill="#020202" d="M358.637,140.247h2.413l-0.401,1.948c-0.228,1.128-0.594,1.926-1.098,2.395
			c-0.503,0.468-1.155,0.71-1.957,0.727l0.233-1.131c0.401-0.091,0.71-0.254,0.927-0.489c0.217-0.235,0.381-0.597,0.492-1.084
			h-1.102L358.637,140.247z M362.66,140.247h2.421l-0.4,1.948c-0.233,1.128-0.603,1.926-1.106,2.395
			c-0.503,0.468-1.153,0.71-1.949,0.727l0.226-1.131c0.401-0.091,0.711-0.254,0.931-0.489c0.22-0.235,0.386-0.597,0.497-1.084
			h-1.102L362.66,140.247z"/>
	</g>
	<rect x="88.296" y="131.48" fill-rule="evenodd" clip-rule="evenodd" fill="#1E9C48" width="277.254" height="3.557"/>
	<polyline fill-rule="evenodd" clip-rule="evenodd" fill="none" stroke="#000000" stroke-width="3" stroke-miterlimit="10" points="
		112.924,92.799 119.527,72.07 121.558,78.943 128.275,58.949 136.241,83.005 139.209,76.443 140.771,80.193 215.646,80.193 	"/>
	<polyline fill-rule="evenodd" clip-rule="evenodd" fill="none" stroke="#000000" stroke-width="3" stroke-miterlimit="10" points="
		21.909,83.481 47.297,83.521 49.401,76.295 53.619,89.729 68.458,43.492 88.296,92.799 	"/>
	<path fill-rule="evenodd" clip-rule="evenodd" fill="none" stroke="#000000" stroke-width="4" stroke-miterlimit="10" d="
		M109.722,90"/>
</g>
</svg>
